<svg xmlns="http://www.w3.org/2000/svg" viewBox="0 0 600 420" width="600" height="420" role="img" aria-label="Analytics Reporting preview">
  <defs>
    <linearGradient id="bg-analytics-reporting-dashboard" x1="0" y1="0" x2="1" y2="1">
      <stop offset="0%" stop-color="#0B0B12"/>
      <stop offset="100%" stop-color="#13131D"/>
    </linearGradient>
    <radialGradient id="glow-analytics-reporting-dashboard" cx="0.5" cy="0.3" r="0.6">
      <stop offset="0%" stop-color="#7C3AED" stop-opacity="0.15"/>
      <stop offset="100%" stop-color="#7C3AED" stop-opacity="0"/>
    </radialGradient>
  </defs>
  <rect width="600" height="420" fill="url(#bg-analytics-reporting-dashboard)"/>
  <rect width="600" height="420" fill="url(#glow-analytics-reporting-dashboard)"/>
  
      <rect x="40" y="80" width="280" height="160" rx="12" fill="#13131D" stroke="#2a2a3e" stroke-width="1"/>
      
    <defs><linearGradient id="area-7C3AED" x1="0" y1="0" x2="0" y2="1">
      <stop offset="0%" stop-color="#7C3AED" stop-opacity="0.4"/>
      <stop offset="100%" stop-color="#7C3AED" stop-opacity="0"/>
    </linearGradient></defs>
    <polygon points="60,220 60,184 94.28571428571428,166 128.57142857142856,178 162.85714285714283,148 197.14285714285714,154 231.42857142857144,130 265.71428571428567,136 300,118 300,220" fill="url(#area-7C3AED)"/>
    <polyline points="60,184 94.28571428571428,166 128.57142857142856,178 162.85714285714283,148 197.14285714285714,154 231.42857142857144,130 265.71428571428567,136 300,118" fill="none" stroke="#7C3AED" stroke-width="2.5" stroke-linecap="round" stroke-linejoin="round"/>
  
      <rect x="340" y="80" width="220" height="160" rx="12" fill="#13131D" stroke="#2a2a3e" stroke-width="1"/>
      
    <circle cx="450" cy="160" r="55" fill="none" stroke="#1a1a2e" stroke-width="14"/>
    <circle cx="450" cy="160" r="55" fill="none" stroke="#7C3AED" stroke-width="14"
      stroke-dasharray="248.81413816431163 345.57519189487726" stroke-linecap="round"
      transform="rotate(-90 450 160)"/>
    <circle cx="450" cy="160" r="30.250000000000004" fill="none" stroke="#5B21B6" stroke-width="10"
      stroke-dasharray="104.53649554820039 190.06635554218252" stroke-linecap="round"
      transform="rotate(-90 450 160)"/>
  
      <rect x="40" y="260" width="520" height="160" rx="12" fill="#13131D" stroke="#2a2a3e" stroke-width="1"/>
      <rect x="60" y="352" width="62.57142857142857" height="48" rx="4" fill="#7C3AED" opacity="0.66"/><rect x="128.57142857142856" y="322" width="62.57142857142857" height="78" rx="4" fill="#7C3AED" opacity="0.76"/><rect x="197.14285714285714" y="340" width="62.57142857142857" height="60" rx="4" fill="#7C3AED" opacity="0.7"/><rect x="265.7142857142857" y="304" width="62.57142857142857" height="96" rx="4" fill="#7C3AED" opacity="0.8200000000000001"/><rect x="334.2857142857143" y="328" width="62.57142857142857" height="72" rx="4" fill="#7C3AED" opacity="0.74"/><rect x="402.85714285714283" y="292" width="62.57142857142857" height="108" rx="4" fill="#7C3AED" opacity="0.8600000000000001"/><rect x="471.42857142857144" y="316" width="62.57142857142857" height="84" rx="4" fill="#7C3AED" opacity="0.78"/>
    
</svg>